<mxfile host="www.draw.io" modified="2019-12-01T23:50:15.199Z" agent="Mozilla/5.0 (Macintosh; Intel Mac OS X 10_14_6) AppleWebKit/537.36 (KHTML, like Gecko) Chrome/78.0.3904.97 Safari/537.36" etag="ovcDzzhARTGRHixwwq9x" version="12.3.3" type="github" pages="1">
  <diagram id="ehYdtjaICjUh1_pMpAxE" name="Page-1">
    <mxGraphModel dx="786" dy="491" grid="1" gridSize="10" guides="1" tooltips="1" connect="1" arrows="1" fold="1" page="1" pageScale="1" pageWidth="850" pageHeight="1100" math="0" shadow="0">
      <root>
        <mxCell id="0"/>
        <mxCell id="1" parent="0"/>
        <mxCell id="E9ek0ImNC2pMV3F1fIgo-3" value="" style="edgeStyle=orthogonalEdgeStyle;rounded=0;orthogonalLoop=1;jettySize=auto;html=1;" edge="1" parent="1" source="E9ek0ImNC2pMV3F1fIgo-1" target="E9ek0ImNC2pMV3F1fIgo-2">
          <mxGeometry relative="1" as="geometry"/>
        </mxCell>
        <mxCell id="E9ek0ImNC2pMV3F1fIgo-1" value="BATM Customer" style="rounded=0;whiteSpace=wrap;html=1;fillColor=#d5e8d4;strokeColor=#82b366;" vertex="1" parent="1">
          <mxGeometry x="20" y="20" width="120" height="60" as="geometry"/>
        </mxCell>
        <mxCell id="E9ek0ImNC2pMV3F1fIgo-5" value="" style="edgeStyle=orthogonalEdgeStyle;rounded=0;orthogonalLoop=1;jettySize=auto;html=1;" edge="1" parent="1" source="E9ek0ImNC2pMV3F1fIgo-2" target="E9ek0ImNC2pMV3F1fIgo-4">
          <mxGeometry relative="1" as="geometry"/>
        </mxCell>
        <mxCell id="E9ek0ImNC2pMV3F1fIgo-2" value="" style="rounded=0;whiteSpace=wrap;html=1;" vertex="1" parent="1">
          <mxGeometry x="220" y="20" width="120" height="60" as="geometry"/>
        </mxCell>
        <mxCell id="E9ek0ImNC2pMV3F1fIgo-4" value="" style="rounded=0;whiteSpace=wrap;html=1;direction=west;" vertex="1" parent="1">
          <mxGeometry x="220" y="160" width="120" height="60" as="geometry"/>
        </mxCell>
        <mxCell id="E9ek0ImNC2pMV3F1fIgo-11" value="&lt;h1&gt;Telr Gatekeeper&lt;/h1&gt;&lt;p&gt;Easily secure your crypto in this Crypto Security Application (CSA).&lt;/p&gt;" style="text;html=1;strokeColor=none;fillColor=none;spacing=5;spacingTop=-20;whiteSpace=wrap;overflow=hidden;rounded=0;" vertex="1" parent="1">
          <mxGeometry x="480" y="60" width="190" height="120" as="geometry"/>
        </mxCell>
      </root>
    </mxGraphModel>
  </diagram>
</mxfile>
